<svg  viewBox="0 0 338 42" fill="none" xmlns="http://www.w3.org/2000/svg">
<path d="M18.44 41.56C6.064 41.56 0.072 33.216 0.072 21.064C0.072 8.912 6.064 0.567997 18.44 0.567997C29.136 0.567997 35.352 7.064 35.352 14.568H32.72C31.936 8.016 27.176 3.032 18.44 3.032C8.36 3.032 3.04 9.584 3.04 21.064C3.04 32.544 8.36 39.096 18.44 39.096C27.064 39.096 31.936 34.336 32.72 27.224H35.352C35.352 34.896 29.36 41.56 18.44 41.56ZM57.8697 41.56C45.4937 41.56 39.5017 33.216 39.5017 21.064C39.5017 8.912 45.4937 0.567997 57.8697 0.567997C70.3017 0.567997 76.2937 8.912 76.2937 21.064C76.2937 33.216 70.3017 41.56 57.8697 41.56ZM57.8697 39.096C68.0057 39.096 73.3257 32.544 73.3257 21.064C73.3257 9.584 68.0057 3.032 57.8697 3.032C47.7897 3.032 42.4697 9.584 42.4697 21.064C42.4697 32.544 47.7897 39.096 57.8697 39.096ZM114.735 21.064C114.735 33.328 109.023 41 96.3106 41H81.8626V1.128H96.3106C109.023 1.128 114.735 8.856 114.735 21.064ZM111.767 21.064C111.767 9.584 106.671 3.536 96.4226 3.536H84.8306V38.592H96.4226C106.671 38.592 111.767 32.544 111.767 21.064ZM146.517 41H120.253V1.128H146.517V3.592H123.221V19.496H144.725V21.848H123.221V38.536H146.517V41ZM153.203 41.28C151.915 41.28 151.131 40.44 151.131 39.432C151.131 38.424 151.915 37.584 153.203 37.584C154.491 37.584 155.219 38.424 155.219 39.432C155.219 40.44 154.491 41.28 153.203 41.28ZM192.573 41H189.605V21.96H164.237V41H161.269V1.128H164.237V19.384H189.605V1.128H192.573V41ZM225.759 41H199.495V1.128H225.759V3.592H202.463V19.496H223.967V21.848H202.463V38.536H225.759V41ZM264.477 41H261.341L256.805 29.744H236.421L231.885 41H228.749L244.821 1.128H248.405L264.477 41ZM255.909 27.336L246.613 4.208L237.261 27.336H255.909ZM302.102 41H298.966L294.43 29.744H274.046L269.51 41H266.374L282.446 1.128H286.03L302.102 41ZM293.534 27.336L284.238 4.208L274.886 27.336H293.534ZM337.823 41H334.295L309.375 4.992V41H306.519V1.128H310.047L334.911 37.136V1.128H337.823V41Z" fill="current"/>
</svg>
